<?xml version="1.0" encoding="UTF-8" standalone="no"?>
<!-- Created with Inkscape (http://www.inkscape.org/) -->

<svg
   xmlns:dc="http://purl.org/dc/elements/1.1/"
   xmlns:cc="http://creativecommons.org/ns#"
   xmlns:rdf="http://www.w3.org/1999/02/22-rdf-syntax-ns#"
   xmlns:svg="http://www.w3.org/2000/svg"
   xmlns="http://www.w3.org/2000/svg"
   xmlns:xlink="http://www.w3.org/1999/xlink"
   xmlns:sodipodi="http://sodipodi.sourceforge.net/DTD/sodipodi-0.dtd"
   xmlns:inkscape="http://www.inkscape.org/namespaces/inkscape"
   width="133.222mm"
   height="63.985001mm"
   viewBox="0 0 472.04646 226.71851"
   id="svg3678"
   version="1.1"
   inkscape:version="0.91 r13725"
   sodipodi:docname="Magick.NET.svg">
  <defs
     id="defs3680">
    <clipPath
       id="clipPath3712"
       clipPathUnits="userSpaceOnUse">
      <path
         inkscape:connector-curvature="0"
         id="path3714"
         d="m 0,281.597 500.975,0 L 500.975,0 0,0 0,281.597 Z" />
    </clipPath>
    <clipPath
       id="clipPath3720"
       clipPathUnits="userSpaceOnUse">
      <path
         inkscape:connector-curvature="0"
         id="path3722"
         d="m 89.9585,80.4512 19.3925,0 0,-9.8067 -19.3925,0 0,9.8067 z" />
    </clipPath>
    <clipPath
       id="clipPath3724"
       clipPathUnits="userSpaceOnUse">
      <path
         inkscape:connector-curvature="0"
         id="path3726"
         d="m 90.178,71.169 -0.22,-0.524 19.172,9.279 0.221,0.527 -19.173,-9.282 z" />
    </clipPath>
    <linearGradient
       id="linearGradient3732"
       spreadMethod="pad"
       gradientTransform="matrix(-87.469299,164.30005,164.30005,87.469299,129.5083,19.472168)"
       gradientUnits="userSpaceOnUse"
       y2="0"
       x2="1"
       y1="0"
       x1="0">
      <stop
         id="stop3734"
         offset="0"
         style="stop-opacity:0;stop-color:#ffffff" />
      <stop
         id="stop3736"
         offset="1"
         style="stop-opacity:1;stop-color:#ffffff" />
    </linearGradient>
    <mask
       id="mask3738"
       height="1"
       width="1"
       y="0"
       x="0"
       maskUnits="userSpaceOnUse">
      <g
         id="g3740">
        <g
           id="g3742">
          <g
             id="g3744">
            <g
               id="g3746">
              <path
                 inkscape:connector-curvature="0"
                 id="path3748"
                 style="fill:url(#linearGradient3732);stroke:none"
                 d="m -32768,32767 65535,0 0,-65534 -65535,0 0,65534 z" />
            </g>
          </g>
        </g>
      </g>
    </mask>
    <clipPath
       id="clipPath3790"
       clipPathUnits="userSpaceOnUse">
      <path
         inkscape:connector-curvature="0"
         id="path3792"
         d="m 0,281.597 500.975,0 L 500.975,0 0,0 0,281.597 Z" />
    </clipPath>
    <linearGradient
       inkscape:collect="always"
       xlink:href="#linearGradient3732"
       id="linearGradient3989"
       gradientUnits="userSpaceOnUse"
       gradientTransform="matrix(-87.469299,164.30005,164.30005,87.469299,129.5083,19.472168)"
       spreadMethod="pad"
       x1="0"
       y1="0"
       x2="1"
       y2="0" />
  </defs>
  <sodipodi:namedview
     id="base"
     pagecolor="#ffffff"
     bordercolor="#666666"
     borderopacity="1.0"
     inkscape:pageopacity="0.0"
     inkscape:pageshadow="2"
     inkscape:zoom="1"
     inkscape:cx="375"
     inkscape:cy="360"
     inkscape:document-units="px"
     inkscape:current-layer="layer1"
     showgrid="false"
     inkscape:window-width="1920"
     inkscape:window-height="1148"
     inkscape:window-x="1672"
     inkscape:window-y="-8"
     inkscape:window-maximized="1" />
  <metadata
     id="metadata3683">
    <rdf:RDF>
      <cc:Work
         rdf:about="">
        <dc:format>image/svg+xml</dc:format>
        <dc:type
           rdf:resource="http://purl.org/dc/dcmitype/StillImage" />
        <dc:title></dc:title>
      </cc:Work>
    </rdf:RDF>
  </metadata>
  <g
     inkscape:label="Laag 1"
     inkscape:groupmode="layer"
     id="layer1"
     transform="translate(0,-825.6437)">
    <g
       transform="matrix(1.2500003,0,0,-1.25,-64.690517,1120.2023)"
       inkscape:label="logoMagickNet_rgb_singleColor2"
       id="g3694">
      <g
         transform="translate(65.6274,177.0615)"
         id="g3696">
        <path
           inkscape:connector-curvature="0"
           id="path3698"
           style="fill:#1b75bb;fill-opacity:1;fill-rule:nonzero;stroke:none"
           d="m 0,0 -13.875,-0.337 52.262,-49.351 -25.821,-62.003 11.984,5.799 24.723,59.363 L 0,0 Z" />
      </g>
      <g
         transform="translate(158.0913,98.4531)"
         id="g3700">
        <path
           inkscape:connector-curvature="0"
           id="path3702"
           style="fill:#1b75bb;fill-opacity:1;fill-rule:nonzero;stroke:none"
           d="M 0,0 63.919,-44.181 60.847,-31.659 9.296,3.969 0,0 Z" />
      </g>
      <g
         transform="translate(167.4351,227.3892)"
         id="g3704">
        <path
           inkscape:connector-curvature="0"
           id="path3706"
           style="fill:#1b75bb;fill-opacity:1;fill-rule:nonzero;stroke:none"
           d="m 0,0 -3.768,8.257 -36.44,-55.372 9.351,0.228 L 0,0 Z" />
      </g>
      <g
         id="g3708">
        <g
           clip-path="url(#clipPath3712)"
           id="g3710">
          <g
             id="g3716">
            <g
               id="g3718" />
            <g
               id="g3756">
              <g
                 style="opacity:0.80000299"
                 id="g3758"
                 clip-path="url(#clipPath3720)">
                <g
                   id="g3760">
                  <g
                     id="g3762"
                     clip-path="url(#clipPath3724)">
                    <g
                       id="g3764">
                      <g
                         id="g3766" />
                      <g
                         id="g3768"
                         mask="url(#mask3738)">
                        <g
                           id="g3770">
                          <path
                             inkscape:connector-curvature="0"
                             id="path3772"
                             style="fill:url(#linearGradient3989);stroke:none"
                             d="m 90.178,71.169 -0.22,-0.524 19.172,9.279 0.221,0.527 -19.173,-9.282 z" />
                        </g>
                      </g>
                    </g>
                  </g>
                </g>
              </g>
            </g>
          </g>
        </g>
      </g>
      <g
         transform="translate(206.1382,118.9634)"
         id="g3774">
        <path
           inkscape:connector-curvature="0"
           id="path3776"
           style="fill:#a3e0f9;fill-opacity:1;fill-rule:nonzero;stroke:none"
           d="M 0,0 -38.751,-16.541 12.8,-52.169 0,0 Z" />
      </g>
      <g
         transform="translate(105.5122,178.0313)"
         id="g3778">
        <path
           inkscape:connector-curvature="0"
           id="path3780"
           style="fill:#a3e0f9;fill-opacity:1;fill-rule:nonzero;stroke:none"
           d="M 0,0 -39.885,-0.97 9.388,-47.499 -15.334,-106.862 23.998,-87.82 41.051,-38.761 0,0 Z" />
      </g>
      <g
         transform="translate(167.4351,227.3892)"
         id="g3782">
        <path
           inkscape:connector-curvature="0"
           id="path3784"
           style="fill:#a3e0f9;fill-opacity:1;fill-rule:nonzero;stroke:none"
           d="m 0,0 -30.857,-46.887 28.062,0.681 14.102,21.431 L 0,0 Z" />
      </g>
      <g
         id="g3786">
        <g
           clip-path="url(#clipPath3790)"
           id="g3788">
          <g
             transform="translate(402.6641,162.8013)"
             id="g3794">
            <path
               inkscape:connector-curvature="0"
               id="path3796"
               style="fill:#231f20;fill-opacity:1;fill-rule:nonzero;stroke:none"
               d="m 0,0 11.12,0 0,-33.768 4.512,0 0,33.768 11.093,0 0,4.004 L 0,4.004 0,0 Z m -20.138,-16.567 13.912,0 0,4.003 -13.912,0 0,12.564 15.016,0 0,4.004 -19.526,0 0,-37.772 20.412,0 0,4.005 -15.902,0 0,13.196 z M -37.664,-22.6 c 0,-2.613 0.091,-4.468 0.271,-5.552 l -0.105,0 c -0.272,0.505 -0.792,1.348 -1.561,2.525 l -19.283,29.631 -5.857,0 0,-37.772 4.513,0 0,27.29 c 0,2.65 -0.072,4.381 -0.215,5.187 l 0.164,0 c 0.341,-0.86 0.741,-1.648 1.204,-2.371 l 19.88,-30.106 5.474,0 0,37.772 -4.485,0 0,-26.604 z" />
          </g>
          <g
             transform="translate(158.8638,128.457)"
             id="g3798">
            <path
               inkscape:connector-curvature="0"
               id="path3800"
               style="fill:#231f20;fill-opacity:1;fill-rule:nonzero;stroke:none"
               d="m 0,0 c 0.283,1.495 0.677,3.548 1.183,6.157 0.505,2.607 1.071,5.528 1.699,8.764 0.626,3.235 1.283,6.643 1.971,10.222 0.688,3.578 1.375,7.065 2.063,10.463 l -0.425,1.698 c 0.444,0.122 1.051,0.252 1.82,0.394 0.767,0.141 1.597,0.213 2.487,0.213 0.404,-0.485 0.839,-1.255 1.304,-2.305 0.464,-1.052 1.102,-2.65 1.91,-4.793 L 22.625,8.067 c 1.052,2.669 2.124,5.338 3.215,8.006 1.092,2.67 2.143,5.237 3.155,7.704 1.01,2.467 1.961,4.762 2.85,6.886 0.89,2.122 1.678,3.951 2.367,5.489 l -0.122,1.152 c 0.161,0.08 0.414,0.152 0.759,0.213 0.343,0.06 0.706,0.12 1.091,0.181 0.384,0.061 0.758,0.111 1.123,0.152 0.363,0.04 0.667,0.061 0.909,0.061 0.243,0 0.445,-0.102 0.607,-0.304 0.161,-0.203 0.283,-0.627 0.364,-1.274 L 42.824,13.769 C 43.391,10.574 43.887,7.844 44.311,5.581 44.735,3.315 45.109,1.455 45.433,0 45.23,-0.082 44.958,-0.152 44.615,-0.213 c -0.344,-0.06 -0.698,-0.121 -1.063,-0.182 -0.363,-0.061 -0.718,-0.1 -1.061,-0.121 -0.344,-0.02 -0.637,-0.03 -0.88,-0.03 -0.688,0 -1.091,0.404 -1.213,1.213 C 40.236,1.516 40.084,2.335 39.943,3.124 39.801,3.912 39.66,4.75 39.519,5.641 39.377,6.53 39.225,7.5 39.064,8.553 38.902,9.603 38.74,10.816 38.579,12.192 L 35.606,30.935 C 35.04,29.398 34.333,27.539 33.484,25.354 32.634,23.171 31.703,20.794 30.693,18.227 29.682,15.659 28.64,12.97 27.569,10.16 26.497,7.348 25.436,4.569 24.385,1.82 24.223,1.374 24.051,1.031 23.869,0.788 23.688,0.546 23.374,0.363 22.929,0.242 22.605,0.161 22.211,0.08 21.747,0 c -0.466,-0.082 -0.86,-0.122 -1.184,-0.122 -0.324,0.971 -0.738,2.193 -1.243,3.67 -0.507,1.476 -1.072,3.094 -1.698,4.853 -0.628,1.759 -1.285,3.609 -1.972,5.55 -0.688,1.941 -1.385,3.882 -2.093,5.822 -0.707,1.942 -1.394,3.832 -2.061,5.672 -0.668,1.841 -1.285,3.528 -1.85,5.065 C 9.321,28.286 8.917,25.749 8.433,22.897 7.946,20.047 7.461,17.205 6.976,14.375 6.491,11.544 6.026,8.886 5.581,6.398 5.136,3.912 4.793,1.919 4.55,0.424 4.388,-0.223 4.065,-0.546 3.58,-0.546 c -0.405,0 -0.992,0.021 -1.76,0.06 C 1.052,-0.445 0.445,-0.283 0,0" />
          </g>
          <g
             transform="translate(212.6064,134.8252)"
             id="g3802">
            <path
               inkscape:connector-curvature="0"
               id="path3804"
               style="fill:#231f20;fill-opacity:1;fill-rule:nonzero;stroke:none"
               d="m 0,0 c 0,-1.051 0.305,-1.88 0.916,-2.487 0.609,-0.606 1.485,-0.909 2.625,-0.909 0.61,0 1.22,0.11 1.831,0.333 0.61,0.222 1.18,0.495 1.709,0.819 0.528,0.324 1.018,0.677 1.465,1.061 0.447,0.385 0.793,0.759 1.037,1.122 0.122,0.202 0.223,0.445 0.304,0.728 0.08,0.284 0.122,0.708 0.122,1.274 l 0,4.429 C 8.788,6.167 7.576,5.893 6.377,5.55 5.177,5.207 4.109,4.782 3.173,4.276 2.236,3.771 1.474,3.164 0.884,2.457 0.295,1.75 0,0.951 0,0.061 L 0,0 Z m 17.894,-5.52 c -0.203,-0.404 -0.627,-0.798 -1.274,-1.183 -0.647,-0.383 -1.476,-0.576 -2.487,-0.576 -1.213,0 -2.153,0.385 -2.82,1.153 -0.667,0.768 -1.083,1.677 -1.244,2.73 C 9.705,-3.801 9.25,-4.236 8.705,-4.701 8.159,-5.166 7.541,-5.59 6.854,-5.975 6.167,-6.359 5.419,-6.672 4.61,-6.914 3.801,-7.157 2.972,-7.279 2.124,-7.279 c -2.063,0 -3.711,0.648 -4.944,1.942 -1.235,1.293 -1.85,2.85 -1.85,4.67 0,1.658 0.484,3.042 1.455,4.156 0.971,1.111 2.112,2.031 3.427,2.759 1.313,0.728 2.639,1.284 3.973,1.668 1.335,0.384 2.386,0.677 3.154,0.88 0.526,0.08 1.021,0.171 1.487,0.273 0.465,0.1 0.879,0.191 1.243,0.273 l 0,2.062 c 0,0.687 -0.09,1.355 -0.273,2.001 -0.182,0.647 -0.475,1.223 -0.879,1.73 -0.405,0.505 -0.91,0.909 -1.517,1.213 -0.607,0.303 -1.355,0.455 -2.244,0.455 -1.052,0 -2.133,-0.283 -3.245,-0.85 -1.113,-0.566 -2.073,-1.152 -2.881,-1.759 -1.255,-0.848 -2.124,-0.485 -2.609,1.092 l -0.304,1.032 c 0.405,0.444 0.961,0.93 1.669,1.455 0.707,0.525 1.516,1.001 2.426,1.426 0.91,0.424 1.87,0.778 2.881,1.061 1.011,0.283 2.042,0.425 3.094,0.425 1.537,0 2.83,-0.243 3.882,-0.728 1.051,-0.485 1.911,-1.163 2.577,-2.032 0.668,-0.87 1.154,-1.902 1.457,-3.094 0.304,-1.193 0.455,-2.477 0.455,-3.852 0,-0.646 -0.01,-1.506 -0.031,-2.577 -0.021,-1.072 -0.04,-2.205 -0.06,-3.398 -0.021,-1.193 -0.03,-2.395 -0.03,-3.608 0,-1.213 0.02,-2.266 0.06,-3.155 0,-1.334 0.647,-2.002 1.941,-2.002 0.202,0 0.445,0.031 0.728,0.092 0.282,0.06 0.525,0.13 0.728,0.212 l 0,-2.063 z" />
          </g>
          <g
             transform="translate(243.3916,152.417)"
             id="g3806">
            <path
               inkscape:connector-curvature="0"
               id="path3808"
               style="fill:#231f20;fill-opacity:1;fill-rule:nonzero;stroke:none"
               d="m 0,0 c -1.489,0 -2.756,-0.568 -3.801,-1.699 -1.046,-1.132 -1.568,-2.729 -1.568,-4.792 0,-1.942 0.513,-3.488 1.538,-4.64 1.026,-1.152 2.323,-1.728 3.89,-1.728 0.926,0 1.72,0.171 2.382,0.515 0.664,0.343 1.205,0.808 1.63,1.394 0.421,0.586 0.734,1.264 0.933,2.033 0.202,0.768 0.304,1.577 0.304,2.426 0,1.86 -0.443,3.406 -1.329,4.641 C 3.095,-0.618 1.788,0 0.059,0 L 0,0 Z m -6.825,-29.238 c 0.081,-1.536 0.798,-2.729 2.154,-3.578 1.354,-0.849 3.184,-1.274 5.489,-1.274 1.213,0 2.346,0.162 3.396,0.485 1.051,0.324 1.962,0.769 2.73,1.334 0.769,0.568 1.376,1.224 1.819,1.972 0.447,0.749 0.669,1.547 0.669,2.396 0,1.011 -0.357,1.87 -1.062,2.578 -0.71,0.707 -2.072,1.102 -4.095,1.182 -1.254,0.081 -2.374,0.111 -3.366,0.092 -0.992,-0.021 -1.911,-0.051 -2.761,-0.092 -0.444,0 -0.869,-0.1 -1.273,-0.303 -0.849,-0.404 -1.678,-1.041 -2.486,-1.91 -0.81,-0.869 -1.214,-1.81 -1.214,-2.821 l 0,-0.061 z M 0.213,3.093 c 1.696,0 3.051,-0.195 4.062,-0.586 1.011,-0.39 1.799,-0.761 2.366,-1.113 1.415,0 2.718,0.051 3.913,0.152 1.191,0.101 2.133,0.192 2.821,0.273 0.039,-0.164 0.08,-0.35 0.119,-0.554 0.041,-0.206 0.061,-0.452 0.061,-0.74 0,-0.616 -0.1,-1.182 -0.302,-1.695 -0.201,-0.514 -0.527,-0.811 -0.97,-0.893 l -3.581,0 c 0.364,-0.81 0.608,-1.538 0.73,-2.183 0.121,-0.648 0.181,-1.396 0.181,-2.245 0,-1.538 -0.261,-2.892 -0.785,-4.064 C 8.303,-11.728 7.6,-12.709 6.715,-13.497 5.827,-14.286 4.8,-14.882 3.633,-15.286 2.465,-15.69 1.256,-15.893 0.009,-15.893 c -0.687,0 -1.241,0.03 -1.664,0.091 -0.422,0.06 -0.895,0.171 -1.418,0.334 -0.444,-0.446 -0.817,-0.81 -1.119,-1.092 -0.303,-0.284 -0.614,-0.545 -0.936,-0.789 -0.283,-0.203 -0.424,-0.404 -0.424,-0.606 0,-0.485 0.353,-0.931 1.058,-1.335 0.706,-0.405 1.785,-0.627 3.236,-0.667 1.409,-0.082 2.872,-0.122 4.383,-0.122 1.513,0 2.793,-0.04 3.841,-0.12 2.379,-0.203 4.121,-0.891 5.23,-2.063 1.11,-1.173 1.662,-2.669 1.662,-4.489 0,-1.738 -0.383,-3.265 -1.15,-4.579 -0.77,-1.314 -1.801,-2.417 -3.095,-3.306 -1.293,-0.889 -2.79,-1.556 -4.487,-2.002 -1.699,-0.444 -3.481,-0.668 -5.339,-0.668 -3.639,0 -6.43,0.709 -8.371,2.124 -1.94,1.416 -2.912,3.215 -2.912,5.398 0,1.376 0.561,2.619 1.684,3.731 1.123,1.113 2.441,2.071 3.951,2.881 -1.556,0.566 -2.691,1.283 -3.406,2.153 -0.717,0.87 -1.115,1.748 -1.198,2.64 0,0.282 0.182,0.524 0.547,0.727 0.889,0.566 1.688,1.123 2.396,1.669 0.707,0.545 1.283,1.04 1.729,1.485 -1.255,0.85 -2.275,1.92 -3.063,3.215 -0.79,1.293 -1.184,2.79 -1.184,4.489 0,1.374 0.252,2.669 0.758,3.881 0.506,1.214 1.214,2.265 2.123,3.155 0.911,0.889 1.992,1.586 3.246,2.093 1.252,0.504 2.607,0.758 4.064,0.758 l 0.062,0 z" />
          </g>
          <g
             transform="translate(260.8291,147.624)"
             id="g3810">
            <path
               inkscape:connector-curvature="0"
               id="path3812"
               style="fill:#231f20;fill-opacity:1;fill-rule:nonzero;stroke:none"
               d="M 0,0 C 0,1.901 -0.02,3.356 -0.061,4.368 -0.103,5.377 -0.163,6.227 -0.243,6.915 0,6.996 0.313,7.077 0.696,7.158 1.08,7.239 1.465,7.31 1.851,7.37 2.232,7.431 2.608,7.471 2.971,7.491 3.335,7.512 3.617,7.522 3.821,7.522 3.982,7.522 4.112,7.491 4.217,7.431 4.316,7.37 4.398,7.208 4.457,6.946 4.518,6.682 4.568,6.299 4.609,5.793 4.65,5.288 4.67,4.61 4.67,3.761 l 0,-21.654 c 0,-0.568 -0.091,-0.941 -0.272,-1.123 -0.181,-0.181 -0.477,-0.314 -0.88,-0.394 -0.404,-0.08 -0.92,-0.141 -1.545,-0.182 -0.63,-0.039 -1.346,-0.081 -2.156,-0.121 0.041,1.213 0.08,2.648 0.122,4.307 C -0.02,-13.749 0,-12.01 0,-10.19 L 0,0 Z m 2.486,20.442 c 0.728,0 1.314,-0.264 1.761,-0.789 C 4.689,19.128 4.913,18.46 4.913,17.652 4.913,16.883 4.67,16.215 4.186,15.65 3.7,15.084 3.053,14.801 2.244,14.801 c -0.809,0 -1.448,0.242 -1.912,0.728 -0.465,0.485 -0.697,1.152 -0.697,2.002 0,1.01 0.315,1.748 0.94,2.213 0.627,0.464 1.245,0.698 1.851,0.698 l 0.06,0 z" />
          </g>
          <g
             transform="translate(292.0684,131.6709)"
             id="g3814">
            <path
               inkscape:connector-curvature="0"
               id="path3816"
               style="fill:#231f20;fill-opacity:1;fill-rule:nonzero;stroke:none"
               d="m 0,0 c -0.082,-0.566 -0.243,-1.143 -0.486,-1.729 -0.243,-0.585 -0.586,-1.021 -1.033,-1.304 -0.564,-0.323 -1.333,-0.585 -2.304,-0.787 -0.969,-0.202 -2.04,-0.305 -3.215,-0.305 -1.417,0 -2.941,0.204 -4.579,0.607 -1.638,0.404 -3.166,1.132 -4.581,2.185 -1.415,1.05 -2.598,2.456 -3.546,4.215 -0.95,1.759 -1.428,4.013 -1.428,6.764 0,1.373 0.151,2.637 0.456,3.791 0.304,1.152 0.698,2.183 1.185,3.092 0.483,0.91 1.028,1.719 1.635,2.428 0.609,0.706 1.214,1.303 1.82,1.789 1.293,1.05 2.729,1.828 4.307,2.335 1.579,0.504 3.154,0.758 4.731,0.758 1.131,0 2.164,-0.111 3.093,-0.334 0.931,-0.222 1.718,-0.475 2.365,-0.758 0.647,-0.284 1.164,-0.577 1.55,-0.879 0.382,-0.304 0.635,-0.537 0.758,-0.698 0,-0.324 -0.083,-0.688 -0.244,-1.091 -0.163,-0.405 -0.345,-0.77 -0.545,-1.093 -0.243,-0.323 -0.538,-0.465 -0.88,-0.424 -0.343,0.04 -0.7,0.161 -1.062,0.364 -0.849,0.444 -1.738,0.778 -2.669,1.001 -0.932,0.221 -1.841,0.333 -2.728,0.333 -1.337,0 -2.548,-0.263 -3.642,-0.788 -1.089,-0.526 -2.022,-1.243 -2.79,-2.154 -0.769,-0.909 -1.363,-1.981 -1.789,-3.215 -0.425,-1.234 -0.638,-2.577 -0.638,-4.033 0,-2.063 0.356,-3.782 1.064,-5.156 0.707,-1.375 1.586,-2.467 2.638,-3.275 1.051,-0.81 2.184,-1.376 3.397,-1.699 1.213,-0.324 2.324,-0.486 3.336,-0.486 1.05,0 2.053,0.082 3.003,0.243 0.951,0.161 1.81,0.385 2.578,0.668 L 0,0 Z" />
          </g>
          <g
             transform="translate(302.0752,143.3779)"
             id="g3818">
            <path
               inkscape:connector-curvature="0"
               id="path3820"
               style="fill:#231f20;fill-opacity:1;fill-rule:nonzero;stroke:none"
               d="m 0,0 c 1.009,0.89 2.095,1.901 3.244,3.033 1.155,1.132 2.297,2.264 3.43,3.397 1.13,1.132 2.182,2.204 3.153,3.216 0.97,1.01 1.779,1.839 2.426,2.486 0.445,0 0.962,-0.021 1.548,-0.06 0.586,-0.042 1.16,-0.163 1.726,-0.365 0.609,-0.203 0.78,-0.546 0.517,-1.031 -0.265,-0.485 -1,-1.315 -2.213,-2.487 C 12.656,7.057 11.374,5.833 9.979,4.52 8.583,3.206 6.934,1.678 5.035,-0.061 c 0.647,-0.848 1.547,-1.981 2.699,-3.396 1.153,-1.416 2.367,-2.872 3.64,-4.368 1.273,-1.496 2.507,-2.881 3.7,-4.154 1.192,-1.274 2.153,-2.214 2.88,-2.82 l -0.122,-0.243 c -0.323,-0.202 -0.807,-0.343 -1.453,-0.425 -0.648,-0.081 -1.316,-0.121 -2.001,-0.121 -0.771,0 -1.406,0.131 -1.912,0.394 -0.506,0.262 -1.062,0.737 -1.669,1.425 -0.689,0.647 -1.528,1.537 -2.518,2.668 C 7.29,-9.969 6.278,-8.764 5.248,-7.49 4.217,-6.216 3.225,-4.974 2.274,-3.761 1.324,-2.547 0.566,-1.537 0,-0.727 l 0,-12.92 c 0,-0.607 -0.102,-1.011 -0.306,-1.213 -0.206,-0.203 -0.573,-0.344 -1.107,-0.426 -0.572,-0.08 -1.096,-0.13 -1.566,-0.151 -0.471,-0.02 -1.096,-0.03 -1.874,-0.03 0.081,1.213 0.133,2.729 0.153,4.549 0.019,1.819 0.03,4.004 0.03,6.551 l 0,22.929 c 0,1.819 -0.019,3.234 -0.06,4.246 -0.042,1.01 -0.103,1.84 -0.183,2.486 0.206,0.122 0.501,0.233 0.89,0.335 0.388,0.1 0.788,0.191 1.198,0.272 0.41,0.08 0.799,0.141 1.167,0.182 0.367,0.041 0.655,0.061 0.862,0.061 0.121,0 0.234,-0.03 0.336,-0.091 0.102,-0.061 0.185,-0.233 0.245,-0.515 0.061,-0.284 0.113,-0.688 0.152,-1.213 C -0.02,23.798 0,23.09 0,22.201 L 0,0 Z" />
          </g>
          <g
             transform="translate(328.5127,134.6563)"
             id="g3822">
            <path
               inkscape:connector-curvature="0"
               id="path3824"
               style="fill:#1b75bb;fill-opacity:1;fill-rule:nonzero;stroke:none"
               d="m 0,0 c -0.849,0 -1.571,-0.304 -2.162,-0.916 -0.592,-0.612 -0.888,-1.348 -0.888,-2.22 0,-0.849 0.296,-1.582 0.888,-2.203 0.591,-0.619 1.313,-0.929 2.162,-0.929 0.868,0 1.61,0.31 2.22,0.929 0.612,0.621 0.914,1.354 0.914,2.203 0,0.85 -0.302,1.589 -0.914,2.207 C 1.61,-0.306 0.868,0 0,0" />
          </g>
          <g
             transform="translate(277.0137,111.0337)"
             id="g3826">
            <path
               inkscape:connector-curvature="0"
               id="path3828"
               style="fill:#231f20;fill-opacity:1;fill-rule:nonzero;stroke:none"
               d="M 0,0 C 0,0.626 -0.009,1.107 -0.021,1.44 -0.034,1.773 -0.054,2.053 -0.08,2.28 0,2.307 0.103,2.333 0.23,2.36 0.356,2.386 0.482,2.41 0.61,2.43 0.736,2.45 0.859,2.463 0.979,2.47 1.099,2.476 1.191,2.479 1.259,2.479 1.313,2.479 1.356,2.47 1.39,2.45 1.422,2.43 1.45,2.376 1.47,2.29 1.489,2.203 1.507,2.077 1.52,1.91 1.532,1.743 1.539,1.52 1.539,1.24 l 0,-7.141 C 1.539,-6.087 1.509,-6.21 1.45,-6.271 1.39,-6.331 1.292,-6.374 1.159,-6.4 1.027,-6.427 0.855,-6.447 0.649,-6.461 c -0.206,-0.013 -0.443,-0.026 -0.71,-0.04 0.013,0.4 0.027,0.874 0.04,1.42 C -0.009,-4.534 0,-3.96 0,-3.361 L 0,0 Z M 0.818,6.739 C 1.06,6.739 1.253,6.653 1.4,6.48 1.546,6.307 1.619,6.086 1.619,5.82 1.619,5.566 1.539,5.346 1.381,5.16 1.22,4.973 1.005,4.879 0.74,4.879 0.474,4.879 0.263,4.96 0.108,5.119 -0.043,5.28 -0.121,5.5 -0.121,5.78 c 0,0.333 0.104,0.576 0.31,0.729 0.207,0.155 0.411,0.23 0.61,0.23 l 0.019,0 z" />
          </g>
          <g
             transform="translate(281.1328,111.5938)"
             id="g3830">
            <path
               inkscape:connector-curvature="0"
               id="path3832"
               style="fill:#231f20;fill-opacity:1;fill-rule:nonzero;stroke:none"
               d="m 0,0 c 0,0.346 -0.043,0.603 -0.128,0.77 -0.087,0.166 -0.204,0.29 -0.351,0.37 l 0,0.24 c 0.067,0.106 0.166,0.219 0.301,0.34 C -0.045,1.84 0.076,1.932 0.185,2 0.358,2.027 0.508,2.013 0.63,1.959 0.901,1.893 1.099,1.713 1.229,1.42 1.356,1.126 1.435,0.827 1.461,0.52 1.806,0.906 2.105,1.183 2.357,1.35 2.611,1.517 2.85,1.652 3.075,1.76 3.262,1.84 3.446,1.906 3.633,1.959 3.819,2.013 4.052,2.04 4.33,2.04 4.929,2.04 5.424,1.896 5.814,1.61 6.207,1.322 6.502,0.926 6.702,0.42 7.01,0.766 7.288,1.033 7.535,1.219 7.782,1.406 8.039,1.573 8.308,1.72 8.494,1.826 8.698,1.906 8.92,1.959 9.139,2.013 9.391,2.04 9.673,2.04 c 0.508,0 0.935,-0.087 1.282,-0.261 0.35,-0.172 0.634,-0.406 0.856,-0.699 0.218,-0.293 0.377,-0.644 0.47,-1.05 0.094,-0.407 0.142,-0.838 0.142,-1.29 l 0,-3.22 c 0,-1.161 0.019,-1.968 0.058,-2.42 -0.189,-0.027 -0.404,-0.06 -0.647,-0.1 -0.243,-0.041 -0.48,-0.061 -0.709,-0.061 -0.163,0 -0.243,0.101 -0.243,0.301 l 0,5.199 c 0,0.84 -0.151,1.44 -0.447,1.801 C 10.135,0.6 9.74,0.78 9.25,0.78 8.972,0.78 8.716,0.736 8.483,0.65 8.251,0.563 8.043,0.453 7.856,0.32 7.672,0.187 7.503,0.037 7.349,-0.13 7.196,-0.297 7.075,-0.454 6.981,-0.6 l 0,-5.861 C 6.981,-6.673 6.96,-6.81 6.921,-6.87 6.88,-6.931 6.777,-6.974 6.617,-7 6.374,-7.027 6.15,-7.043 5.948,-7.05 5.747,-7.057 5.558,-7.061 5.382,-7.061 c 0.039,0.64 0.058,1.874 0.058,3.7 l 0,1.861 c 0,0.826 -0.138,1.413 -0.416,1.76 C 4.744,0.606 4.354,0.78 3.851,0.78 3.57,0.78 3.316,0.733 3.084,0.64 2.852,0.547 2.64,0.426 2.446,0.28 2.255,0.133 2.081,-0.027 1.93,-0.2 1.777,-0.374 1.647,-0.541 1.541,-0.7 l 0,-5.84 c 0,-0.174 -0.026,-0.288 -0.08,-0.341 C 1.406,-6.934 1.305,-6.974 1.157,-7 0.94,-7.027 0.728,-7.043 0.519,-7.05 0.309,-7.057 0.117,-7.061 -0.059,-7.061 -0.02,-6.421 0,-5.187 0,-3.361 L 0,0 Z" />
          </g>
          <g
             transform="translate(296.7949,106.8135)"
             id="g3834">
            <path
               inkscape:connector-curvature="0"
               id="path3836"
               style="fill:#231f20;fill-opacity:1;fill-rule:nonzero;stroke:none"
               d="m 0,0 c 0,-0.347 0.101,-0.621 0.302,-0.82 0.2,-0.2 0.488,-0.301 0.866,-0.301 0.199,0 0.401,0.037 0.603,0.111 0.202,0.072 0.388,0.163 0.562,0.27 0.176,0.107 0.337,0.222 0.484,0.349 0.148,0.127 0.263,0.251 0.343,0.37 0.039,0.068 0.071,0.147 0.1,0.24 0.026,0.094 0.039,0.234 0.039,0.42 l 0,1.461 C 2.897,2.033 2.498,1.942 2.101,1.83 1.706,1.717 1.354,1.577 1.046,1.41 0.736,1.243 0.486,1.043 0.291,0.81 0.096,0.576 0,0.313 0,0.02 L 0,0 Z M 5.898,-1.821 C 5.834,-1.954 5.692,-2.083 5.48,-2.21 5.266,-2.337 4.992,-2.4 4.66,-2.4 4.261,-2.4 3.95,-2.273 3.729,-2.02 3.51,-1.768 3.373,-1.467 3.318,-1.121 3.199,-1.254 3.05,-1.397 2.869,-1.55 2.689,-1.704 2.485,-1.843 2.26,-1.97 2.031,-2.097 1.786,-2.2 1.52,-2.281 1.253,-2.36 0.979,-2.4 0.699,-2.4 c -0.679,0 -1.223,0.214 -1.63,0.64 -0.406,0.427 -0.609,0.94 -0.609,1.54 0,0.547 0.16,1.003 0.479,1.369 0.322,0.367 0.697,0.671 1.13,0.911 C 0.502,2.299 0.94,2.483 1.381,2.61 1.819,2.737 2.166,2.833 2.42,2.899 2.594,2.927 2.757,2.956 2.91,2.99 3.063,3.023 3.199,3.053 3.318,3.08 l 0,0.68 C 3.318,3.987 3.29,4.206 3.229,4.42 3.169,4.634 3.073,4.823 2.938,4.989 2.807,5.157 2.64,5.29 2.439,5.39 2.24,5.49 1.992,5.54 1.699,5.54 1.353,5.54 0.996,5.446 0.63,5.26 0.263,5.073 -0.054,4.88 -0.321,4.68 -0.733,4.4 -1.02,4.52 -1.181,5.041 L -1.28,5.38 c 0.133,0.146 0.317,0.306 0.549,0.48 0.234,0.173 0.502,0.329 0.8,0.47 0.3,0.14 0.618,0.257 0.952,0.35 C 1.353,6.773 1.693,6.82 2.04,6.82 2.546,6.82 2.974,6.74 3.318,6.58 3.666,6.419 3.95,6.196 4.169,5.91 4.391,5.623 4.549,5.284 4.648,4.89 4.749,4.497 4.799,4.073 4.799,3.62 4.799,3.406 4.797,3.123 4.79,2.77 4.783,2.417 4.777,2.043 4.771,1.649 4.762,1.257 4.76,0.859 4.76,0.46 c 0,-0.4 0.006,-0.747 0.019,-1.04 0,-0.44 0.213,-0.66 0.64,-0.66 0.067,0 0.147,0.01 0.241,0.031 0.094,0.019 0.174,0.042 0.238,0.069 l 0,-0.681 z" />
          </g>
          <g
             transform="translate(306.9434,112.6133)"
             id="g3838">
            <path
               inkscape:connector-curvature="0"
               id="path3840"
               style="fill:#231f20;fill-opacity:1;fill-rule:nonzero;stroke:none"
               d="m 0,0 c -0.491,0 -0.907,-0.187 -1.253,-0.56 -0.345,-0.373 -0.516,-0.9 -0.516,-1.58 0,-0.64 0.169,-1.15 0.505,-1.529 0.339,-0.381 0.767,-0.571 1.284,-0.571 0.305,0 0.568,0.056 0.785,0.17 0.219,0.113 0.399,0.267 0.538,0.46 0.138,0.193 0.241,0.417 0.308,0.67 0.068,0.253 0.1,0.521 0.1,0.8 0,0.614 -0.146,1.123 -0.438,1.531 C 1.021,-0.204 0.59,0 0.02,0 L 0,0 Z m -2.249,-9.64 c 0.026,-0.506 0.263,-0.901 0.71,-1.18 0.447,-0.28 1.051,-0.42 1.81,-0.42 0.399,0 0.773,0.053 1.12,0.16 0.347,0.107 0.646,0.253 0.9,0.44 0.252,0.186 0.452,0.404 0.6,0.65 0.147,0.247 0.218,0.51 0.218,0.79 0,0.334 -0.115,0.617 -0.349,0.85 -0.232,0.234 -0.684,0.364 -1.35,0.39 -0.412,0.026 -0.783,0.037 -1.108,0.03 -0.328,-0.007 -0.632,-0.017 -0.912,-0.03 -0.146,0 -0.286,-0.034 -0.419,-0.1 -0.28,-0.133 -0.553,-0.343 -0.821,-0.63 -0.266,-0.287 -0.399,-0.597 -0.399,-0.93 l 0,-0.02 z M 0.071,1.02 C 0.631,1.02 1.076,0.956 1.41,0.827 1.744,0.698 2.003,0.575 2.191,0.46 2.658,0.46 3.088,0.477 3.48,0.51 3.873,0.543 4.184,0.573 4.412,0.6 4.425,0.546 4.438,0.485 4.451,0.417 4.464,0.35 4.471,0.268 4.471,0.174 4.471,-0.03 4.438,-0.216 4.37,-0.385 4.303,-0.555 4.197,-0.653 4.052,-0.68 l -1.181,0 C 2.99,-0.947 3.07,-1.187 3.109,-1.399 3.15,-1.613 3.17,-1.86 3.17,-2.14 3.17,-2.646 3.083,-3.093 2.912,-3.479 2.738,-3.867 2.506,-4.19 2.213,-4.45 1.923,-4.71 1.584,-4.907 1.197,-5.04 0.813,-5.173 0.414,-5.24 0.004,-5.24 c -0.226,0 -0.41,0.01 -0.549,0.03 -0.139,0.02 -0.295,0.057 -0.467,0.11 -0.147,-0.147 -0.271,-0.267 -0.369,-0.36 -0.099,-0.093 -0.204,-0.18 -0.309,-0.26 -0.094,-0.067 -0.14,-0.134 -0.14,-0.2 0,-0.16 0.117,-0.307 0.35,-0.439 0.232,-0.134 0.587,-0.208 1.065,-0.221 0.467,-0.027 0.948,-0.04 1.445,-0.04 0.499,0 0.923,-0.013 1.268,-0.04 0.783,-0.068 1.358,-0.293 1.725,-0.68 0.365,-0.387 0.547,-0.88 0.547,-1.48 0,-0.574 -0.126,-1.077 -0.38,-1.51 -0.253,-0.433 -0.592,-0.796 -1.02,-1.09 -0.427,-0.293 -0.92,-0.514 -1.48,-0.66 -0.56,-0.147 -1.146,-0.22 -1.759,-0.22 -1.201,0 -2.121,0.233 -2.761,0.699 -0.641,0.468 -0.959,1.06 -0.959,1.781 0,0.454 0.184,0.864 0.555,1.23 0.369,0.367 0.803,0.683 1.302,0.95 -0.512,0.187 -0.887,0.423 -1.124,0.71 -0.234,0.286 -0.367,0.577 -0.393,0.87 0,0.093 0.058,0.174 0.18,0.24 0.293,0.186 0.556,0.37 0.79,0.55 0.233,0.18 0.423,0.343 0.569,0.49 -0.412,0.28 -0.749,0.633 -1.009,1.061 -0.261,0.426 -0.391,0.919 -0.391,1.48 0,0.452 0.082,0.88 0.249,1.279 0.167,0.4 0.402,0.747 0.702,1.041 0.299,0.293 0.655,0.523 1.07,0.69 0.412,0.166 0.859,0.249 1.339,0.249 l 0.021,0 z" />
          </g>
          <g
             transform="translate(315.8125,112.5732)"
             id="g3842">
            <path
               inkscape:connector-curvature="0"
               id="path3844"
               style="fill:#231f20;fill-opacity:1;fill-rule:nonzero;stroke:none"
               d="m 0,0 c -0.519,0 -0.989,-0.227 -1.408,-0.68 -0.421,-0.454 -0.678,-1.08 -0.771,-1.88 0.386,-0.014 0.777,-0.023 1.17,-0.03 0.393,-0.007 0.76,-0.007 1.1,0 0.339,0.007 0.634,0.013 0.879,0.021 0.248,0.006 0.417,0.009 0.51,0.009 0.134,0 0.237,0.04 0.31,0.12 0.074,0.08 0.111,0.18 0.111,0.3 0.013,0.64 -0.143,1.157 -0.47,1.55 C 1.104,-0.196 0.634,0 0.021,0 L 0,0 Z M 2.88,-6.72 C 2.854,-6.987 2.752,-7.23 2.571,-7.45 2.392,-7.67 2.227,-7.813 2.081,-7.88 1.96,-7.933 1.751,-7.993 1.45,-8.06 c -0.3,-0.066 -0.642,-0.1 -1.029,-0.1 -0.508,0 -1.03,0.073 -1.571,0.221 -0.538,0.146 -1.036,0.433 -1.489,0.859 -0.386,0.386 -0.683,0.877 -0.889,1.47 -0.209,0.594 -0.311,1.223 -0.311,1.89 0,0.64 0.089,1.25 0.269,1.83 0.18,0.58 0.447,1.087 0.8,1.52 0.355,0.433 0.78,0.78 1.282,1.041 C -0.989,0.93 -0.419,1.06 0.222,1.06 0.781,1.06 1.261,0.967 1.66,0.78 2.062,0.594 2.392,0.346 2.649,0.04 2.91,-0.267 3.104,-0.616 3.231,-1.01 3.357,-1.403 3.427,-1.807 3.439,-2.22 3.439,-2.326 3.438,-2.44 3.431,-2.56 3.425,-2.68 3.407,-2.78 3.381,-2.86 3.368,-2.939 3.301,-3.02 3.182,-3.1 3.06,-3.18 2.917,-3.253 2.752,-3.32 2.585,-3.386 2.407,-3.443 2.22,-3.49 2.033,-3.537 1.86,-3.573 1.701,-3.6 1.567,-3.613 1.356,-3.626 1.07,-3.64 0.783,-3.653 0.454,-3.663 0.08,-3.669 c -0.373,-0.008 -0.764,-0.008 -1.17,0 -0.405,0.006 -0.796,0.016 -1.169,0.029 0,-0.533 0.073,-1.006 0.219,-1.42 0.147,-0.413 0.358,-0.76 0.632,-1.04 0.271,-0.28 0.598,-0.493 0.978,-0.641 0.38,-0.146 0.797,-0.218 1.25,-0.218 0.454,0 0.858,0.046 1.211,0.139 0.352,0.093 0.611,0.173 0.771,0.24 L 2.88,-6.72 Z" />
          </g>
          <g
             transform="translate(324.6123,111.5938)"
             id="g3846">
            <path
               inkscape:connector-curvature="0"
               id="path3848"
               style="fill:#231f20;fill-opacity:1;fill-rule:nonzero;stroke:none"
               d="m 0,0 c 0,0.346 -0.043,0.603 -0.128,0.77 -0.087,0.166 -0.204,0.29 -0.351,0.37 l 0,0.24 c 0.067,0.106 0.166,0.219 0.301,0.34 C -0.045,1.84 0.076,1.932 0.185,2 0.358,2.027 0.508,2.013 0.63,1.959 0.901,1.893 1.099,1.713 1.229,1.42 1.356,1.126 1.435,0.827 1.461,0.52 1.806,0.906 2.105,1.183 2.357,1.35 2.611,1.517 2.85,1.652 3.075,1.76 3.262,1.84 3.446,1.906 3.633,1.959 3.82,2.013 4.052,2.04 4.33,2.04 4.929,2.04 5.424,1.896 5.814,1.61 6.207,1.322 6.502,0.926 6.702,0.42 7.01,0.766 7.288,1.033 7.535,1.219 7.782,1.406 8.039,1.573 8.308,1.72 8.494,1.826 8.698,1.906 8.92,1.959 9.139,2.013 9.391,2.04 9.673,2.04 c 0.508,0 0.935,-0.087 1.282,-0.261 0.35,-0.172 0.634,-0.406 0.856,-0.699 0.218,-0.293 0.377,-0.644 0.47,-1.05 0.094,-0.407 0.142,-0.838 0.142,-1.29 l 0,-3.22 c 0,-1.161 0.019,-1.968 0.058,-2.42 -0.189,-0.027 -0.404,-0.06 -0.647,-0.1 -0.243,-0.041 -0.48,-0.061 -0.709,-0.061 -0.163,0 -0.243,0.101 -0.243,0.301 l 0,5.199 c 0,0.84 -0.151,1.44 -0.447,1.801 C 10.135,0.6 9.74,0.78 9.25,0.78 8.972,0.78 8.716,0.736 8.483,0.65 8.251,0.563 8.043,0.453 7.856,0.32 7.672,0.187 7.503,0.037 7.349,-0.13 7.196,-0.297 7.075,-0.454 6.981,-0.6 l 0,-5.861 C 6.981,-6.673 6.96,-6.81 6.921,-6.87 6.88,-6.931 6.777,-6.974 6.617,-7 6.374,-7.027 6.15,-7.043 5.949,-7.05 5.747,-7.057 5.559,-7.061 5.383,-7.061 c 0.039,0.64 0.058,1.874 0.058,3.7 l 0,1.861 c 0,0.826 -0.139,1.413 -0.417,1.76 C 4.744,0.606 4.354,0.78 3.851,0.78 3.57,0.78 3.316,0.733 3.084,0.64 2.852,0.547 2.64,0.426 2.446,0.28 2.255,0.133 2.082,-0.027 1.93,-0.2 1.777,-0.374 1.647,-0.541 1.541,-0.7 l 0,-5.84 c 0,-0.174 -0.025,-0.288 -0.08,-0.341 C 1.406,-6.934 1.305,-6.974 1.157,-7 0.94,-7.027 0.728,-7.043 0.519,-7.05 0.309,-7.057 0.117,-7.061 -0.059,-7.061 -0.02,-6.421 0,-5.187 0,-3.361 L 0,0 Z" />
          </g>
          <g
             transform="translate(340.2744,106.8135)"
             id="g3850">
            <path
               inkscape:connector-curvature="0"
               id="path3852"
               style="fill:#231f20;fill-opacity:1;fill-rule:nonzero;stroke:none"
               d="m 0,0 c 0,-0.347 0.101,-0.621 0.302,-0.82 0.2,-0.2 0.488,-0.301 0.866,-0.301 0.199,0 0.401,0.037 0.603,0.111 0.202,0.072 0.389,0.163 0.562,0.27 0.176,0.107 0.337,0.222 0.484,0.349 0.148,0.127 0.263,0.251 0.343,0.37 0.039,0.068 0.071,0.147 0.1,0.24 0.026,0.094 0.039,0.234 0.039,0.42 l 0,1.461 C 2.897,2.033 2.498,1.942 2.102,1.83 1.706,1.717 1.354,1.577 1.047,1.41 0.736,1.243 0.486,1.043 0.291,0.81 0.096,0.576 0,0.313 0,0.02 L 0,0 Z M 5.899,-1.821 C 5.834,-1.954 5.692,-2.083 5.48,-2.21 5.266,-2.337 4.992,-2.4 4.66,-2.4 4.261,-2.4 3.95,-2.273 3.729,-2.02 3.51,-1.768 3.373,-1.467 3.318,-1.121 3.199,-1.254 3.05,-1.397 2.869,-1.55 2.689,-1.704 2.485,-1.843 2.26,-1.97 2.031,-2.097 1.786,-2.2 1.52,-2.281 1.253,-2.36 0.979,-2.4 0.699,-2.4 c -0.679,0 -1.223,0.214 -1.63,0.64 -0.405,0.427 -0.609,0.94 -0.609,1.54 0,0.547 0.16,1.003 0.479,1.369 C -0.739,1.516 -0.364,1.82 0.07,2.06 0.502,2.299 0.94,2.483 1.381,2.61 1.819,2.737 2.166,2.833 2.42,2.899 2.594,2.927 2.757,2.956 2.91,2.99 3.063,3.023 3.199,3.053 3.318,3.08 l 0,0.68 C 3.318,3.987 3.29,4.206 3.229,4.42 3.169,4.634 3.073,4.823 2.938,4.989 2.807,5.157 2.64,5.29 2.439,5.39 2.24,5.49 1.992,5.54 1.699,5.54 1.353,5.54 0.996,5.446 0.63,5.26 0.263,5.073 -0.054,4.88 -0.32,4.68 -0.733,4.4 -1.02,4.52 -1.18,5.041 l -0.1,0.339 c 0.133,0.146 0.317,0.306 0.55,0.48 0.234,0.173 0.501,0.329 0.8,0.47 C 0.369,6.47 0.687,6.587 1.021,6.68 1.353,6.773 1.693,6.82 2.04,6.82 2.546,6.82 2.974,6.74 3.318,6.58 3.666,6.419 3.95,6.196 4.169,5.91 4.391,5.623 4.549,5.284 4.649,4.89 4.749,4.497 4.799,4.073 4.799,3.62 4.799,3.406 4.797,3.123 4.79,2.77 4.783,2.417 4.777,2.043 4.771,1.649 4.762,1.257 4.76,0.859 4.76,0.46 c 0,-0.4 0.007,-0.747 0.019,-1.04 0,-0.44 0.213,-0.66 0.64,-0.66 0.067,0 0.148,0.01 0.241,0.031 0.094,0.019 0.174,0.042 0.239,0.069 l 0,-0.681 z" />
          </g>
          <g
             transform="translate(353.4131,110.0938)"
             id="g3854">
            <path
               inkscape:connector-curvature="0"
               id="path3856"
               style="fill:#231f20;fill-opacity:1;fill-rule:nonzero;stroke:none"
               d="M 0,0 C 0,0.826 -0.154,1.413 -0.465,1.76 -0.774,2.106 -1.202,2.28 -1.742,2.28 -2.008,2.28 -2.255,2.23 -2.484,2.13 -2.717,2.029 -2.934,1.907 -3.138,1.76 -3.344,1.613 -3.524,1.447 -3.683,1.26 -3.841,1.072 -3.974,0.9 -4.08,0.739 l 0,-5.719 c 0,-0.214 -0.025,-0.351 -0.08,-0.411 -0.055,-0.059 -0.163,-0.096 -0.325,-0.109 -0.203,-0.027 -0.405,-0.041 -0.609,-0.041 -0.201,0 -0.396,-0.006 -0.586,-0.02 0.039,0.64 0.059,1.874 0.059,3.7 l 0,3.361 c 0,0.346 -0.043,0.603 -0.128,0.77 -0.087,0.166 -0.204,0.29 -0.352,0.37 l 0,0.24 c 0.068,0.106 0.167,0.219 0.302,0.34 0.133,0.12 0.254,0.212 0.362,0.28 0.174,0.027 0.324,0.013 0.446,-0.041 C -4.72,3.393 -4.522,3.22 -4.393,2.939 -4.265,2.66 -4.187,2.346 -4.16,2 c 0.492,0.533 0.983,0.927 1.475,1.18 0.185,0.106 0.398,0.193 0.638,0.26 0.239,0.066 0.484,0.1 0.738,0.1 0.545,0 0.998,-0.09 1.366,-0.27 C 0.421,3.089 0.714,2.846 0.934,2.539 1.152,2.233 1.309,1.867 1.399,1.44 1.493,1.013 1.541,0.56 1.541,0.08 l 0,-3.04 c 0,-0.6 0.009,-1.1 0.03,-1.5 0.02,-0.4 0.041,-0.713 0.07,-0.94 C 1.438,-5.427 1.215,-5.46 0.973,-5.5 0.729,-5.541 0.486,-5.561 0.243,-5.561 c -0.176,0 -0.263,0.095 -0.263,0.28 L 0,0 Z" />
          </g>
          <g
             transform="translate(357.4756,111.0337)"
             id="g3858">
            <path
               inkscape:connector-curvature="0"
               id="path3860"
               style="fill:#231f20;fill-opacity:1;fill-rule:nonzero;stroke:none"
               d="M 0,0 C 0,0.626 -0.009,1.107 -0.021,1.44 -0.034,1.773 -0.054,2.053 -0.08,2.28 0,2.307 0.103,2.333 0.23,2.36 0.356,2.386 0.481,2.41 0.61,2.43 0.735,2.45 0.859,2.463 0.979,2.47 1.099,2.476 1.191,2.479 1.259,2.479 1.313,2.479 1.356,2.47 1.389,2.45 1.422,2.43 1.45,2.376 1.47,2.29 1.489,2.203 1.506,2.077 1.52,1.91 1.532,1.743 1.539,1.52 1.539,1.24 l 0,-7.141 C 1.539,-6.087 1.509,-6.21 1.45,-6.271 1.389,-6.331 1.291,-6.374 1.159,-6.4 1.026,-6.427 0.855,-6.447 0.649,-6.461 c -0.207,-0.013 -0.443,-0.026 -0.71,-0.04 0.013,0.4 0.027,0.874 0.04,1.42 C -0.009,-4.534 0,-3.96 0,-3.361 L 0,0 Z M 0.818,6.739 C 1.06,6.739 1.252,6.653 1.4,6.48 1.545,6.307 1.619,6.086 1.619,5.82 1.619,5.566 1.539,5.346 1.381,5.16 1.22,4.973 1.005,4.879 0.74,4.879 0.474,4.879 0.263,4.96 0.108,5.119 -0.043,5.28 -0.121,5.5 -0.121,5.78 c 0,0.333 0.103,0.576 0.309,0.729 0.208,0.155 0.411,0.23 0.611,0.23 l 0.019,0 z" />
          </g>
          <g
             transform="translate(363.1338,106.1528)"
             id="g3862">
            <path
               inkscape:connector-curvature="0"
               id="path3864"
               style="fill:#231f20;fill-opacity:1;fill-rule:nonzero;stroke:none"
               d="m 0,0 c 0.145,-0.133 0.407,-0.28 0.787,-0.439 0.378,-0.161 0.792,-0.24 1.244,-0.24 0.254,0 0.556,0.059 0.907,0.18 0.352,0.119 0.684,0.322 0.997,0.61 0.312,0.286 0.577,0.666 0.795,1.139 0.22,0.473 0.331,1.071 0.331,1.791 0,1 -0.237,1.78 -0.708,2.34 C 3.882,5.941 3.307,6.221 2.63,6.221 2.35,6.221 2.074,6.171 1.803,6.071 1.529,5.97 1.282,5.854 1.057,5.721 0.831,5.587 0.625,5.444 0.438,5.291 0.251,5.137 0.105,5.013 0,4.921 L 0,0 Z m -1.541,5.56 c 0,0.334 -0.05,0.567 -0.15,0.701 -0.1,0.133 -0.208,0.232 -0.33,0.3 l 0,0.3 c 0.081,0.106 0.167,0.203 0.26,0.29 0.094,0.087 0.187,0.162 0.281,0.23 0.134,0.066 0.271,0.099 0.406,0.099 0.242,0 0.466,-0.117 0.668,-0.35 0.204,-0.233 0.319,-0.589 0.344,-1.07 0.6,0.507 1.138,0.871 1.618,1.091 C 2.033,7.371 2.552,7.48 3.109,7.48 3.535,7.48 3.96,7.397 4.388,7.231 4.813,7.064 5.197,6.804 5.544,6.451 5.89,6.097 6.172,5.647 6.391,5.101 6.61,4.554 6.721,3.907 6.721,3.161 6.721,2.307 6.558,1.537 6.23,0.851 5.904,0.164 5.444,-0.407 4.846,-0.859 4.407,-1.192 3.935,-1.422 3.431,-1.549 2.925,-1.676 2.48,-1.739 2.094,-1.739 1.643,-1.739 1.226,-1.683 0.848,-1.57 0.469,-1.456 0.187,-1.347 0,-1.239 l 0,-3.94 C 0,-5.353 -0.024,-5.467 -0.072,-5.52 -0.117,-5.573 -0.224,-5.626 -0.385,-5.679 -0.602,-5.707 -0.808,-5.726 -1.003,-5.74 -1.198,-5.753 -1.398,-5.76 -1.6,-5.76 c 0.026,0.267 0.043,0.684 0.05,1.25 0.007,0.567 0.009,1.318 0.009,2.251 l 0,7.819 z" />
          </g>
          <g
             transform="translate(371.6338,111.0532)"
             id="g3866">
            <path
               inkscape:connector-curvature="0"
               id="path3868"
               style="fill:#231f20;fill-opacity:1;fill-rule:nonzero;stroke:none"
               d="M 0,0 C 0,0.613 -0.009,1.087 -0.021,1.42 -0.034,1.753 -0.054,2.033 -0.08,2.26 0.08,2.326 0.309,2.376 0.597,2.41 0.888,2.443 1.113,2.46 1.276,2.46 1.317,2.46 1.354,2.45 1.387,2.431 1.422,2.41 1.447,2.357 1.47,2.27 1.489,2.183 1.506,2.057 1.52,1.89 1.532,1.723 1.539,1.5 1.539,1.221 l 0,-4.061 c 0,-0.56 0.057,-1.007 0.169,-1.34 0.11,-0.333 0.256,-0.587 0.435,-0.759 0.179,-0.174 0.373,-0.288 0.586,-0.341 0.209,-0.053 0.414,-0.08 0.613,-0.08 0.237,0 0.471,0.04 0.701,0.12 0.232,0.08 0.44,0.183 0.625,0.31 0.185,0.126 0.354,0.263 0.506,0.41 0.152,0.147 0.266,0.293 0.345,0.44 l 0,5.761 c 0,0.225 0.019,0.383 0.061,0.469 0.041,0.086 0.121,0.144 0.243,0.17 0.242,0.04 0.473,0.074 0.69,0.101 C 6.728,2.447 6.93,2.46 7.12,2.46 7.12,2.233 7.109,1.797 7.09,1.15 7.068,0.503 7.06,-0.253 7.06,-1.12 l 0,-3.2 c 0,-0.254 0.026,-0.46 0.08,-0.619 0.052,-0.161 0.126,-0.288 0.219,-0.381 0.093,-0.094 0.2,-0.16 0.322,-0.2 0.119,-0.04 0.245,-0.074 0.38,-0.1 l 0,-0.3 C 8.006,-6.067 7.906,-6.223 7.759,-6.39 7.613,-6.556 7.439,-6.64 7.24,-6.64 6.85,-6.64 6.507,-6.51 6.209,-6.25 5.912,-5.99 5.736,-5.647 5.682,-5.221 5.35,-5.566 5.046,-5.827 4.774,-6 4.501,-6.173 4.273,-6.3 4.087,-6.38 3.7,-6.553 3.303,-6.64 2.891,-6.64 1.893,-6.64 1.161,-6.354 0.697,-5.78 0.232,-5.207 0,-4.44 0,-3.48 L 0,0 Z" />
          </g>
          <g
             transform="translate(381.335,115.7734)"
             id="g3870">
            <path
               inkscape:connector-curvature="0"
               id="path3872"
               style="fill:#231f20;fill-opacity:1;fill-rule:nonzero;stroke:none"
               d="M 0,0 C 0,0.6 -0.009,1.07 -0.021,1.411 -0.035,1.75 -0.055,2.021 -0.08,2.22 0.013,2.26 0.123,2.297 0.252,2.331 0.38,2.363 0.51,2.39 0.638,2.41 0.766,2.431 0.888,2.447 1.002,2.46 1.117,2.473 1.209,2.48 1.275,2.48 1.33,2.48 1.373,2.471 1.406,2.45 1.44,2.431 1.469,2.373 1.488,2.28 1.508,2.187 1.521,2.053 1.527,1.88 1.536,1.707 1.538,1.474 1.538,1.181 l 0,-9.661 c 0,-0.494 0.007,-0.983 0.02,-1.471 0.015,-0.486 0.035,-0.87 0.061,-1.15 C 1.538,-11.126 1.43,-11.15 1.295,-11.17 1.161,-11.191 1.024,-11.207 0.89,-11.22 0.755,-11.233 0.629,-11.243 0.514,-11.25 0.401,-11.257 0.316,-11.26 0.263,-11.26 0.087,-11.26 0,-11.173 0,-11 L 0,0 Z" />
          </g>
          <g
             transform="translate(386.1152,106.8135)"
             id="g3874">
            <path
               inkscape:connector-curvature="0"
               id="path3876"
               style="fill:#231f20;fill-opacity:1;fill-rule:nonzero;stroke:none"
               d="m 0,0 c 0,-0.347 0.101,-0.621 0.302,-0.82 0.2,-0.2 0.488,-0.301 0.866,-0.301 0.199,0 0.401,0.037 0.603,0.111 0.202,0.072 0.389,0.163 0.562,0.27 0.176,0.107 0.337,0.222 0.484,0.349 0.148,0.127 0.263,0.251 0.343,0.37 0.039,0.068 0.071,0.147 0.1,0.24 0.026,0.094 0.039,0.234 0.039,0.42 l 0,1.461 C 2.897,2.033 2.498,1.942 2.102,1.83 1.706,1.717 1.354,1.577 1.046,1.41 0.736,1.243 0.486,1.043 0.291,0.81 0.096,0.576 0,0.313 0,0.02 L 0,0 Z M 5.899,-1.821 C 5.834,-1.954 5.692,-2.083 5.48,-2.21 5.266,-2.337 4.992,-2.4 4.66,-2.4 4.261,-2.4 3.95,-2.273 3.729,-2.02 3.51,-1.768 3.373,-1.467 3.318,-1.121 3.199,-1.254 3.05,-1.397 2.869,-1.55 2.689,-1.704 2.485,-1.843 2.26,-1.97 2.031,-2.097 1.786,-2.2 1.52,-2.281 1.253,-2.36 0.979,-2.4 0.699,-2.4 c -0.679,0 -1.223,0.214 -1.63,0.64 -0.406,0.427 -0.609,0.94 -0.609,1.54 0,0.547 0.16,1.003 0.479,1.369 0.322,0.367 0.697,0.671 1.13,0.911 C 0.502,2.299 0.94,2.483 1.381,2.61 1.819,2.737 2.166,2.833 2.42,2.899 2.594,2.927 2.757,2.956 2.91,2.99 3.063,3.023 3.199,3.053 3.318,3.08 l 0,0.68 C 3.318,3.987 3.29,4.206 3.229,4.42 3.169,4.634 3.073,4.823 2.938,4.989 2.807,5.157 2.64,5.29 2.439,5.39 2.24,5.49 1.992,5.54 1.699,5.54 1.353,5.54 0.996,5.446 0.63,5.26 0.263,5.073 -0.054,4.88 -0.321,4.68 -0.733,4.4 -1.02,4.52 -1.181,5.041 L -1.28,5.38 c 0.133,0.146 0.317,0.306 0.549,0.48 0.234,0.173 0.502,0.329 0.8,0.47 0.3,0.14 0.618,0.257 0.952,0.35 C 1.353,6.773 1.693,6.82 2.04,6.82 2.546,6.82 2.974,6.74 3.318,6.58 3.666,6.419 3.95,6.196 4.169,5.91 4.391,5.623 4.549,5.284 4.648,4.89 4.749,4.497 4.799,4.073 4.799,3.62 4.799,3.406 4.797,3.123 4.79,2.77 4.783,2.417 4.777,2.043 4.771,1.649 4.762,1.257 4.76,0.859 4.76,0.46 c 0,-0.4 0.006,-0.747 0.019,-1.04 0,-0.44 0.213,-0.66 0.64,-0.66 0.067,0 0.148,0.01 0.241,0.031 0.094,0.019 0.174,0.042 0.239,0.069 l 0,-0.681 z" />
          </g>
          <g
             transform="translate(398.2754,105.9736)"
             id="g3878">
            <path
               inkscape:connector-curvature="0"
               id="path3880"
               style="fill:#231f20;fill-opacity:1;fill-rule:nonzero;stroke:none"
               d="M 0,0 0.02,-0.201 C 0.006,-0.574 -0.128,-0.86 -0.382,-1.06 c -0.2,-0.161 -0.458,-0.283 -0.779,-0.37 -0.319,-0.087 -0.653,-0.13 -1.001,-0.13 -0.84,0 -1.445,0.243 -1.818,0.73 -0.374,0.486 -0.56,1.11 -0.56,1.87 l 0,5.24 c -0.36,0 -0.606,0.033 -0.731,0.099 -0.126,0.068 -0.189,0.153 -0.189,0.261 0.039,0.106 0.132,0.246 0.279,0.42 0.146,0.173 0.307,0.35 0.48,0.529 0.174,0.181 0.339,0.348 0.499,0.5 0.161,0.154 0.273,0.258 0.341,0.311 0.132,0.106 0.269,0.2 0.41,0.28 0.139,0.08 0.323,0.146 0.55,0.199 C -2.928,8.56 -2.947,8.283 -2.96,8.049 -2.976,7.816 -2.982,7.607 -2.982,7.42 l 3.181,0 C 0.146,7.18 0.082,6.993 0.009,6.86 -0.065,6.727 -0.146,6.623 -0.23,6.55 -0.317,6.476 -0.408,6.426 -0.502,6.4 -0.595,6.373 -0.682,6.36 -0.762,6.36 -0.948,6.347 -1.094,6.336 -1.2,6.33 -1.309,6.323 -1.431,6.316 -1.571,6.31 -1.71,6.302 -1.889,6.3 -2.101,6.3 l -0.901,0 C -3.027,5.767 -3.045,5.24 -3.052,4.719 -3.058,4.2 -3.061,3.713 -3.061,3.26 c 0,-0.454 0.003,-0.861 0.009,-1.22 0.007,-0.36 0.025,-0.647 0.05,-0.86 0.026,-0.307 0.083,-0.56 0.172,-0.76 0.085,-0.201 0.193,-0.357 0.319,-0.471 0.125,-0.113 0.269,-0.19 0.43,-0.23 0.16,-0.039 0.327,-0.059 0.501,-0.059 0.28,0 0.551,0.049 0.818,0.149 0.267,0.101 0.489,0.211 0.661,0.331 L 0,0 Z" />
          </g>
          <g
             transform="translate(399.916,111.0337)"
             id="g3882">
            <path
               inkscape:connector-curvature="0"
               id="path3884"
               style="fill:#231f20;fill-opacity:1;fill-rule:nonzero;stroke:none"
               d="M 0,0 C 0,0.626 -0.009,1.107 -0.021,1.44 -0.035,1.773 -0.055,2.053 -0.08,2.28 0,2.307 0.102,2.333 0.229,2.36 c 0.126,0.026 0.252,0.05 0.38,0.07 0.126,0.02 0.25,0.033 0.37,0.04 0.119,0.006 0.212,0.009 0.28,0.009 0.054,0 0.097,-0.009 0.13,-0.029 C 1.421,2.43 1.449,2.376 1.469,2.29 1.488,2.203 1.506,2.077 1.519,1.91 1.532,1.743 1.538,1.52 1.538,1.24 l 0,-7.141 c 0,-0.186 -0.03,-0.309 -0.089,-0.37 C 1.389,-6.331 1.291,-6.374 1.158,-6.4 1.026,-6.427 0.854,-6.447 0.648,-6.461 0.442,-6.474 0.206,-6.487 -0.061,-6.501 c 0.013,0.4 0.026,0.874 0.04,1.42 C -0.009,-4.534 0,-3.96 0,-3.361 L 0,0 Z M 0.818,6.739 C 1.059,6.739 1.252,6.653 1.399,6.48 1.545,6.307 1.619,6.086 1.619,5.82 1.619,5.566 1.538,5.346 1.38,5.16 1.22,4.973 1.005,4.879 0.74,4.879 0.473,4.879 0.263,4.96 0.108,5.119 -0.044,5.28 -0.122,5.5 -0.122,5.78 c 0,0.333 0.104,0.576 0.31,0.729 0.207,0.155 0.411,0.23 0.611,0.23 l 0.019,0 z" />
          </g>
          <g
             transform="translate(407.6328,112.5537)"
             id="g3886">
            <path
               inkscape:connector-curvature="0"
               id="path3888"
               style="fill:#231f20;fill-opacity:1;fill-rule:nonzero;stroke:none"
               d="m 0,0 c -0.345,0 -0.684,-0.074 -1.009,-0.22 -0.328,-0.147 -0.621,-0.363 -0.881,-0.65 -0.258,-0.288 -0.468,-0.644 -0.63,-1.07 -0.16,-0.428 -0.238,-0.927 -0.238,-1.501 0,-0.6 0.082,-1.129 0.249,-1.589 0.165,-0.46 0.382,-0.84 0.65,-1.141 0.266,-0.299 0.577,-0.526 0.93,-0.679 0.354,-0.154 0.723,-0.224 1.11,-0.211 0.307,0 0.616,0.063 0.93,0.19 0.313,0.127 0.599,0.33 0.86,0.61 0.26,0.28 0.47,0.647 0.629,1.1 0.161,0.454 0.241,1.001 0.241,1.641 0,0.56 -0.076,1.06 -0.23,1.499 C 2.457,-1.58 2.251,-1.21 1.99,-0.91 1.731,-0.611 1.431,-0.384 1.092,-0.23 0.751,-0.077 0.396,0 0.021,0 L 0,0 Z M 0,1.08 C 0.733,1.08 1.378,0.956 1.932,0.71 2.485,0.462 2.951,0.132 3.331,-0.28 3.711,-0.693 3.998,-1.177 4.19,-1.73 4.384,-2.284 4.481,-2.867 4.481,-3.481 4.481,-3.96 4.432,-4.39 4.332,-4.77 4.232,-5.151 4.108,-5.49 3.961,-5.79 3.813,-6.09 3.648,-6.354 3.462,-6.58 3.275,-6.808 3.095,-6.995 2.921,-7.141 2.574,-7.447 2.155,-7.69 1.66,-7.87 1.168,-8.05 0.641,-8.14 0.08,-8.14 c -0.746,0 -1.399,0.13 -1.959,0.39 -0.56,0.26 -1.026,0.603 -1.4,1.029 -0.373,0.428 -0.654,0.914 -0.84,1.461 -0.187,0.547 -0.279,1.106 -0.279,1.679 0,0.706 0.119,1.358 0.36,1.95 0.238,0.594 0.592,1.097 1.059,1.511 0.386,0.386 0.833,0.683 1.34,0.89 0.506,0.207 1.046,0.31 1.619,0.31 l 0.02,0 z" />
          </g>
          <g
             transform="translate(419.5928,110.0938)"
             id="g3890">
            <path
               inkscape:connector-curvature="0"
               id="path3892"
               style="fill:#231f20;fill-opacity:1;fill-rule:nonzero;stroke:none"
               d="M 0,0 C 0,0.826 -0.154,1.413 -0.465,1.76 -0.774,2.106 -1.202,2.28 -1.742,2.28 -2.008,2.28 -2.255,2.23 -2.484,2.13 -2.717,2.029 -2.934,1.907 -3.138,1.76 -3.344,1.613 -3.524,1.447 -3.683,1.26 -3.841,1.072 -3.974,0.9 -4.08,0.739 l 0,-5.719 c 0,-0.214 -0.025,-0.351 -0.08,-0.411 -0.055,-0.059 -0.163,-0.096 -0.325,-0.109 -0.203,-0.027 -0.405,-0.041 -0.609,-0.041 -0.201,0 -0.396,-0.006 -0.586,-0.02 0.039,0.64 0.059,1.874 0.059,3.7 l 0,3.361 c 0,0.346 -0.043,0.603 -0.128,0.77 -0.087,0.166 -0.204,0.29 -0.352,0.37 l 0,0.24 c 0.068,0.106 0.167,0.219 0.302,0.34 0.133,0.12 0.254,0.212 0.362,0.28 0.174,0.027 0.324,0.013 0.446,-0.041 C -4.72,3.393 -4.522,3.22 -4.393,2.939 -4.265,2.66 -4.187,2.346 -4.16,2 c 0.492,0.533 0.983,0.927 1.475,1.18 0.185,0.106 0.398,0.193 0.638,0.26 0.239,0.066 0.484,0.1 0.738,0.1 0.545,0 0.998,-0.09 1.366,-0.27 C 0.421,3.089 0.714,2.846 0.934,2.539 1.152,2.233 1.309,1.867 1.399,1.44 1.493,1.013 1.541,0.56 1.541,0.08 l 0,-3.04 c 0,-0.6 0.009,-1.1 0.03,-1.5 0.02,-0.4 0.041,-0.713 0.07,-0.94 C 1.438,-5.427 1.216,-5.46 0.973,-5.5 0.729,-5.541 0.486,-5.561 0.243,-5.561 c -0.176,0 -0.263,0.095 -0.263,0.28 L 0,0 Z" />
          </g>
        </g>
      </g>
    </g>
  </g>
</svg>
