<?xml version="1.0" encoding="utf-8"?>
<!-- Generator: Adobe Illustrator 22.1.0, SVG Export Plug-In . SVG Version: 6.00 Build 0) -->
<svg version="1.1"
 id="svg3479" inkscape:version="0.91 r13725" sodipodi:docname="Magick.NET.icon.svg" xmlns:cc="http://creativecommons.org/ns#" xmlns:dc="http://purl.org/dc/elements/1.1/" xmlns:inkscape="http://www.inkscape.org/namespaces/inkscape" xmlns:rdf="http://www.w3.org/1999/02/22-rdf-syntax-ns#" xmlns:sodipodi="http://sodipodi.sourceforge.net/DTD/sodipodi-0.dtd" xmlns:svg="http://www.w3.org/2000/svg"
 xmlns="http://www.w3.org/2000/svg" xmlns:xlink="http://www.w3.org/1999/xlink" x="0px" y="0px" viewBox="0 0 170.3 181.4"
 style="enable-background:new 0 0 170.3 181.4;" xml:space="preserve">
<style type="text/css">
 .st0{fill:none;}
 .st1{fill:#347BBD;}
 .st2{fill:url(#SVGID_1_);}
 .st3{fill:url(#SVGID_2_);}
 .st4{fill:#A8DFF8;}
</style>
<sodipodi:namedview bordercolor="#666666" borderopacity="1.0" id="base" inkscape:current-layer="layer1" inkscape:cx="375" inkscape:cy="400" inkscape:document-units="px" inkscape:pageopacity="0.0" inkscape:pageshadow="2" inkscape:window-height="1148" inkscape:window-maximized="1" inkscape:window-width="1920" inkscape:window-x="1672" inkscape:window-y="-8" inkscape:zoom="1" pagecolor="#ffffff" showborder="false" showgrid="false">
 </sodipodi:namedview>
<g id="g3509">
 <g id="g3519">
 </g>
 <g id="g3567">
 </g>
</g>
<g>
 <polygon class="st0" points="38.2,165 38.2,165 57.6,165 57.6,155.2 57.4,155.7 "/>
 <polygon class="st0" points="38.2,164.6 38.2,165 38.4,164.5 "/>
 <polygon class="st0" points="57.6,155.2 57.6,155.2 57.6,155.2 39.6,163.9 "/>
 <path class="st0" d="M111.9,0l3,9.4l9.1,28.2l-11.1,16.9l-28.1,0.7l-9.4,0.2L111.9,0H0v58.9l13.9-0.3l0,0l39.9-1l41.1,38.8
 l-17.1,49.1l-20.2,9.8h0v0v0v9.8H38.2v0v0v-0.4l-11.8,5.7l25.8-62L0,58.9V182h170.9V0H111.9z M106.3,137.2l9.3-4l0,0l34.4-14.7
 L166,168l4.3,13.4L106.3,137.2z"/>
 <polygon class="st1" points="13.9,58.6 0,58.9 52.3,108.3 26.4,170.3 38.2,164.6 38.4,164.5 38.4,164.5 38.4,164.5 42.3,155.2 
 63.1,105.1 "/>
 <linearGradient id="SVGID_1_" gradientUnits="userSpaceOnUse" x1="-336.8259" y1="387.2104" x2="-335.8259" y2="387.2104" gradientTransform="matrix(-87.5418 -164.4362 -164.4362 87.5418 34262.8398 -89067.2344)">
 <stop offset="0" style="stop-color:#FFFFFF;stop-opacity:0"/>
 <stop offset="1" style="stop-color:#FFFFFF"/>
 </linearGradient>
 <polygon class="st2" points="38.4,164.5 38.4,164.5 38.4,164.5 38.2,165 38.2,165 57.4,155.7 57.6,155.2 57.6,155.2 39.6,163.9 "/>
 <polygon class="st1" points="38.4,164.5 38.4,164.5 38.4,164.5 38.4,164.5 38.4,164.5 38.4,164.5 "/>
 <linearGradient id="SVGID_2_" gradientUnits="userSpaceOnUse" x1="-336.5047" y1="387.2664" x2="-336.4583" y2="387.2664" gradientTransform="matrix(-87.5418 -164.4362 -164.4362 87.5418 34262.8398 -89067.2344)">
 <stop offset="0" style="stop-color:#FFFFFF;stop-opacity:0"/>
 <stop offset="1" style="stop-color:#FFFFFF"/>
 </linearGradient>
 <polygon class="st3" points="38.4,164.5 38.4,164.5 38.4,164.5 38.4,164.5 38.4,164.5 38.4,164.5 "/>
 <polygon class="st4" points="53.8,57.6 13.9,58.6 13.9,58.6 13.9,58.6 63.1,105.1 42.3,155.2 38.4,164.5 39.6,163.9 57.6,155.2 
 77.8,145.4 94.8,96.4 "/>
 <polygon class="st4" points="38.4,164.5 42.3,155.2 42.3,155.2 38.4,164.5 "/>
 <polygon class="st4" points="42.3,155.2 42.3,155.2 63.1,105.1 13.9,58.6 13.9,58.6 63.1,105.1 "/>
 <polygon class="st4" points="39.6,163.9 38.4,164.5 38.4,164.5 "/>
 <polygon class="st4" points="38.4,164.5 38.4,164.5 38.4,164.5 38.4,164.5 "/>
 <polygon class="st1" points="115.6,133.2 115.6,133.2 115.6,133.2 106.3,137.2 170.3,181.4 166,168 "/>
 <polygon class="st1" points="84.8,55.1 114.9,9.4 111.9,0 111.9,0 75.5,55.4 "/>
 <polygon class="st1" points="111.9,0 111.9,0 111.9,0 "/>
 <polygon class="st4" points="166,168 150,118.5 115.6,133.2 115.6,133.2 "/>
 <polygon class="st4" points="112.9,54.5 124,37.6 114.9,9.4 84.8,55.1 "/>
</g>
</svg>
